<svg width="12" height="10" viewBox="0 0 12 10" fill="none" xmlns="http://www.w3.org/2000/svg">
<g id="Bold-Outline">
<g id="menu">
<path id="shape" d="M11.3333 0.333374C11.7015 0.333374 12 0.631851 12 1.00004C12 1.36823 11.7015 1.66671 11.3333 1.66671H0.666667C0.298477 1.66671 0 1.36823 0 1.00004C0 0.631851 0.298477 0.333374 0.666667 0.333374H11.3333ZM11.3333 4.33337C11.7015 4.33337 12 4.63185 12 5.00004C12 5.36823 11.7015 5.66671 11.3333 5.66671H0.666667C0.298477 5.66671 0 5.36823 0 5.00004C0 4.63185 0.298477 4.33337 0.666667 4.33337H11.3333ZM11.3333 8.33337C11.7015 8.33337 12 8.63185 12 9.00004C12 9.36823 11.7015 9.66671 11.3333 9.66671H0.666667C0.298477 9.66671 0 9.36823 0 9.00004C0 8.63185 0.298477 8.33337 0.666667 8.33337H11.3333Z" fill="#4D4D4D"/>
</g>
</g>
</svg>
