<svg width="12" height="12" viewBox="0 0 12 12" fill="none" xmlns="http://www.w3.org/2000/svg">
<g id="Bold-Outline">
<g id="close">
<path id="shape" d="M5.05717 6.00001L0.814525 10.2426C0.554175 10.503 0.554175 10.9251 0.814525 11.1855C1.07487 11.4458 1.49698 11.4458 1.75733 11.1855L5.99997 6.94281L10.2426 11.1855C10.503 11.4458 10.9251 11.4458 11.1854 11.1855C11.4458 10.9251 11.4458 10.503 11.1854 10.2426L6.94278 6.00001L11.1854 1.75736C11.4458 1.49701 11.4458 1.0749 11.1854 0.814555C10.9251 0.554206 10.503 0.554206 10.2426 0.814555L5.99997 5.0572L1.75733 0.814555C1.49698 0.554206 1.07487 0.554206 0.814525 0.814555C0.554175 1.0749 0.554175 1.49701 0.814525 1.75736L5.05717 6.00001Z" fill="#4D4D4D"/>
</g>
</g>
</svg>
